<svg width="58" height="60" viewBox="0 0 58 60" fill="none" xmlns="http://www.w3.org/2000/svg">
<path d="M0.148378 32.7867L5.00219 58.4425C5.11193 59.0226 5.61881 59.4426 6.20917 59.4426H13.4187C14.0972 59.4426 14.6471 58.8926 14.6471 58.2142V24.2107C14.6471 23.2199 13.5345 22.6368 12.7197 23.2005L0.656369 31.5482C0.257221 31.8244 0.0581474 32.3097 0.148378 32.7867Z" fill="#FFD426"/>
<path d="M25.1535 28.5752V58.2142C25.1535 58.8926 25.7035 59.4426 26.3819 59.4426H33.9989C34.6773 59.4426 35.2273 58.8926 35.2273 58.2142V25.2257C35.2273 24.8249 35.4228 24.4492 35.7512 24.2194L39.0295 21.9246C39.3579 21.6947 39.5534 21.3191 39.5534 20.9182V14.6708C39.5534 14.2626 39.3506 13.8811 39.0123 13.6527L19.2203 0.293062C18.4044 -0.257635 17.3046 0.3269 17.3046 1.31121V21.9567C17.3046 22.3643 17.5068 22.7453 17.8443 22.9739L24.6139 27.558C24.9514 27.7866 25.1535 28.1676 25.1535 28.5752Z" fill="#FFD426"/>
<path d="M42.2727 24.1621V58.2142C42.2727 58.8926 42.8227 59.4426 43.5011 59.4426H50.8944C51.4855 59.4426 51.9928 59.0216 52.1018 58.4406L56.9556 32.5532C57.0464 32.0693 56.8394 31.5779 56.4297 31.3048L44.1825 23.14C43.3662 22.5958 42.2727 23.181 42.2727 24.1621Z" fill="#FFD426"/>
<path d="M0.148378 32.7867L5.00219 58.4425C5.11193 59.0226 5.61881 59.4426 6.20917 59.4426H13.4187C14.0972 59.4426 14.6471 58.8926 14.6471 58.2142V24.2107C14.6471 23.2199 13.5345 22.6368 12.7197 23.2005L0.656369 31.5482C0.257221 31.8244 0.0581474 32.3097 0.148378 32.7867Z" stroke="#FFD426" stroke-width="0.123604"/>
<path d="M25.1535 28.5752V58.2142C25.1535 58.8926 25.7035 59.4426 26.3819 59.4426H33.9989C34.6773 59.4426 35.2273 58.8926 35.2273 58.2142V25.2257C35.2273 24.8249 35.4228 24.4492 35.7512 24.2194L39.0295 21.9246C39.3579 21.6947 39.5534 21.3191 39.5534 20.9182V14.6708C39.5534 14.2626 39.3506 13.8811 39.0123 13.6527L19.2203 0.293062C18.4044 -0.257635 17.3046 0.3269 17.3046 1.31121V21.9567C17.3046 22.3643 17.5068 22.7453 17.8443 22.9739L24.6139 27.558C24.9514 27.7866 25.1535 28.1676 25.1535 28.5752Z" stroke="#FFD426" stroke-width="0.123604"/>
<path d="M42.2727 24.1621V58.2142C42.2727 58.8926 42.8227 59.4426 43.5011 59.4426H50.8944C51.4855 59.4426 51.9928 59.0216 52.1018 58.4406L56.9556 32.5532C57.0464 32.0693 56.8394 31.5779 56.4297 31.3048L44.1825 23.14C43.3662 22.5958 42.2727 23.181 42.2727 24.1621Z" stroke="#FFD426" stroke-width="0.123604"/>
</svg>
